<svg width="16" height="16" viewBox="0 0 16 16" fill="none" xmlns="http://www.w3.org/2000/svg">
<path d="M8.00004 6.00016V7.3335M8.00004 10.0002V10.0068M3.33338 12.6668H12.6667C12.8843 12.6653 13.0981 12.6106 13.2896 12.5074C13.4812 12.4043 13.6445 12.2558 13.7655 12.075C13.8865 11.8942 13.9614 11.6865 13.9837 11.4701C14.006 11.2537 13.975 11.0352 13.8934 10.8335L9.16005 2.66684C9.04474 2.45844 8.87572 2.28473 8.67055 2.16376C8.46538 2.0428 8.23155 1.979 7.99338 1.979C7.75521 1.979 7.52138 2.0428 7.31621 2.16376C7.11104 2.28473 6.94202 2.45844 6.82671 2.66684L2.09338 10.8335C2.01334 11.0306 1.9816 11.2439 2.00081 11.4557C2.02002 11.6675 2.08963 11.8717 2.20381 12.0511C2.318 12.2305 2.47345 12.3801 2.6572 12.4872C2.84094 12.5943 3.04764 12.6559 3.26005 12.6668" stroke="#F47500" stroke-width="1.5" stroke-linecap="round" stroke-linejoin="round"/>
</svg>
