<svg width="68" height="18" viewBox="0 0 68 18" fill="none" xmlns="http://www.w3.org/2000/svg">
<path d="M16.0571 11.0957L18.3874 0H27.7086C28.3441 0.0711262 29.827 0.213378 30.6744 1.06689C31.5218 1.92041 31.957 2.86283 31.7336 4.05419L29.827 14.083C29.6523 14.9326 29.4033 15.5766 28.556 16.4301C27.7886 17.203 26.4318 17.9238 25.3783 17.9238H14.4626L14.9979 15.5766C15.0586 15.3255 15.2124 14.9365 15.8479 14.2964C16.6152 13.5235 17.5453 13.2295 17.9664 13.2295H24.1072C24.3359 13.2295 24.9091 13.0619 25.3783 12.5893C25.6462 12.3194 25.7539 11.9803 25.802 11.7358L26.8612 5.9746C26.9336 5.53506 26.8188 5.24911 26.6494 4.90771C26.4799 4.5663 26.0844 4.48095 25.802 4.48095H21.9888L21.1414 8.9619C21.1016 9.17583 21.0143 9.94344 20.5058 10.4556C19.9974 10.9677 19.4297 11.0957 19.0229 11.0957H16.0571Z" fill="#44E858"/>
<path d="M47.2246 9.60203L47.7729 6.82811H35.9968C35.4652 6.82811 35.0622 6.82812 34.4267 7.25487C34.0325 7.51954 33.7611 7.86106 33.6429 8.53514L33.2192 11.0957H44.7994C45.2836 11.0957 45.8382 11.0309 46.3772 10.6689C46.9162 10.307 47.1602 9.93822 47.2246 9.60203Z" fill="#44E858"/>
<path d="M48.6839 2.77392L49.2323 0H37.4561C36.9245 0 36.5216 0 35.886 0.426757C35.4919 0.691421 35.2148 1.00355 35.1023 1.70703L34.6786 4.26757H46.2588C46.743 4.26757 47.2975 4.20275 47.8365 3.84081C48.3755 3.47888 48.5938 3.18568 48.6839 2.77392Z" fill="#44E858"/>
<path d="M45.9299 16.4301L46.5655 13.4429H34.7893C34.2577 13.4429 33.7676 13.6562 33.132 14.083C32.7379 14.3476 32.2656 14.707 32.16 15.3633L31.7363 17.9238H43.5048C43.989 17.9238 44.5436 17.859 45.0826 17.497C45.6216 17.1351 45.8438 16.7724 45.9299 16.4301Z" fill="#44E858"/>
<path d="M6.74082 0H15.6353L15.4265 1.70703C15.2138 2.77392 15.2116 3.20068 14.576 3.84081C13.9405 4.48095 13.5168 4.48095 12.8813 4.48095H8.64429C8.27366 4.48095 7.76888 4.44043 7.16371 4.69433C6.46199 4.98874 6.36719 5.52728 6.31633 5.76122L5.2571 11.0957C5.18649 11.3802 5.08763 12.0772 5.2571 12.5893C5.42658 13.1014 6.01562 13.2295 6.31633 13.2295H10.7651C11.0475 13.2295 11.8906 13.3378 12.2457 13.6562C12.5847 13.9976 12.8242 14.4931 12.6694 15.1499L12.0362 17.9238H3.56008C2.28901 17.9238 1.31417 17.0703 0.805833 16.2168C0.0433695 14.9365 0.241716 13.2295 0.382946 12.376L2.08022 4.26757C2.13672 3.96362 2.33444 2.85927 3.35129 1.49365C4.36815 0.128027 6.03467 0 6.74082 0Z" fill="#44E858"/>
<path d="M55.2511 6.82811L56.5195 0H53.5537C53.3419 0 52.8334 0.0853514 52.4945 0.426757C52.1555 0.768163 51.8984 1.2486 51.8589 1.49365L48.4694 17.9238H52.0708C52.4375 17.9238 52.8166 17.6344 53.0365 17.4153C53.2262 17.2264 53.4282 16.8966 53.5537 16.4301L54.4037 12.5893L56.734 10.2422C57.7836 12.3796 59.573 15.9299 59.8738 16.4301C60.207 16.9844 60.3053 17.2669 60.7302 17.5826C61.1664 17.9067 61.4618 17.9584 62.2514 18H65.6775L60.1209 7.68163L67.75 0H62.141L55.2511 6.82811Z" fill="#44E858"/>
</svg>
