<svg preserveAspectRatio="none" width="100%" height="100%" overflow="visible" style="display: block;" viewBox="0 0 60 16" fill="none" xmlns="http://www.w3.org/2000/svg">
<g id="Vector">
<path d="M14.0508 9.90476L16.1221 0H24.4076C24.9726 0.0634921 26.2907 0.190476 27.0439 0.952381C27.7972 1.71429 27.9855 3.11111 27.9855 3.61905L26.2907 12.5714C26.1652 12.9524 25.9141 13.9048 25.1609 14.6667C24.4788 15.3566 23.6544 15.8095 22.3363 16H12.6335L13.1092 13.9048C13.1092 13.7778 13.2999 13.3333 13.8648 12.7619C14.5469 12.072 15.3736 11.8095 15.7479 11.8095H21.2064C21.3947 11.746 21.9192 11.66 22.3363 11.2381C22.5744 10.9972 22.6501 10.6667 22.7129 10.4762L23.6544 5.33333C23.6544 4.95238 23.6167 4.68571 23.4661 4.38095C23.3155 4.07619 22.9639 4 22.7129 4H19.3233L18.5701 8C18.5701 8.19048 18.4571 8.87619 18.0052 9.33333C17.5533 9.79048 16.8754 9.90476 16.687 9.90476H14.0508Z" fill="var(--fill-0, #44E858)"/>
<path d="M48.8899 6.09524L50.0174 0H47.3811C47.1928 0 46.7408 0.0761904 46.4395 0.380952C46.1382 0.685714 45.9374 1.14286 45.8746 1.33333L42.8617 16H46.0629C46.2512 15.9365 46.7032 15.7333 47.0045 15.4286C47.3058 15.1238 47.3811 14.7937 47.3811 14.6667L48.1367 11.2381L50.208 9.14286C51.0868 10.9841 52.9173 14.5905 53.2186 15.0476C53.5199 15.5048 54.0974 15.873 54.3484 16H58.1146L53.2186 6.85714L60 0H55.0143L48.8899 6.09524Z" fill="var(--fill-0, #44E858)"/>
<path d="M41.7552 8.57143L42.2426 6.09524H31.7749C31.3024 6.09524 30.9442 6.09524 30.3793 6.47619C30.0289 6.71245 29.8709 7.04762 29.6826 7.61905L29.306 9.90476H39.5995C40.0299 9.90476 40.5228 9.84689 41.0019 9.52381C41.481 9.20072 41.7552 8.7619 41.7552 8.57143Z" fill="var(--fill-0, #44E858)"/>
<path d="M43.0524 2.47619L43.5398 0H33.0721C32.5996 0 32.2414 0 31.6765 0.380952C31.3261 0.617209 31.1681 0.952381 30.9798 1.52381L30.6032 3.80952H40.8967C41.3271 3.80952 41.82 3.75166 42.2992 3.42857C42.7783 3.10549 43.0524 2.66667 43.0524 2.47619Z" fill="var(--fill-0, #44E858)"/>
<path d="M40.6044 14.6667L41.1693 12H30.7016C30.2291 12 29.7934 12.1905 29.2285 12.5714C28.8781 12.8077 28.5528 13.1429 28.3644 13.7143L27.9878 16H38.4487C38.8791 16 39.3721 15.9421 39.8512 15.619C40.3303 15.296 40.6044 14.8571 40.6044 14.6667Z" fill="var(--fill-0, #44E858)"/>
<path d="M5.76962 0H13.6758L13.4902 1.52381C13.3012 2.47619 13.2992 2.85714 12.7343 3.42857C12.1693 4 11.7927 4 11.2278 4H7.46159C7.14775 4 6.59746 3.88571 6.14552 4.19048C5.69358 4.49524 5.45506 4.95238 5.39229 5.14286L4.45076 9.90476C4.38799 10.1587 4.30011 10.781 4.45076 11.2381C4.6014 11.6952 5.26676 11.8095 5.39229 11.8095H9.34674C9.59781 11.8095 10.3616 11.8857 10.6629 12.1905C10.9642 12.4952 11.2278 12.9524 11.0395 13.5238L10.4766 16H2.9423C1.81245 16 0.945932 15.2381 0.494073 14.4762C-0.183672 13.3333 -0.00736368 11.8095 0.118174 11.0476L1.62686 3.80952C1.62686 3.55556 1.85283 2.55238 2.75671 1.33333C3.66058 0.114286 5.14193 0 5.76962 0Z" fill="var(--fill-0, #44E858)"/>
</g>
</svg>
