<svg preserveAspectRatio="none" width="100%" height="100%" overflow="visible" style="display: block;" viewBox="0 0 22 19" fill="none" xmlns="http://www.w3.org/2000/svg">
<path id="Symbol" d="M10.582 1.85596C9.80273 0.871582 7.86475 0 5.70117 0C2.86084 0 0.563965 1.46631 0 2.84033V17.165C0 17.9443 0.502441 18.2417 1.06641 18.2417C1.50732 18.2417 1.77393 18.1084 2.05078 17.8931C2.63525 17.3906 3.81445 16.7139 5.70117 16.7139C7.59814 16.7139 8.9209 17.3701 9.43359 17.8315C9.7002 18.0469 10.0181 18.2417 10.582 18.2417C11.146 18.2417 11.4639 18.0264 11.7305 17.8315C12.2842 17.4009 13.5762 16.7139 15.4629 16.7139C17.3599 16.7139 18.5391 17.4009 19.1235 17.8931C19.4004 18.1084 19.6567 18.2417 20.0977 18.2417C20.6616 18.2417 21.1743 17.9443 21.1743 17.165V2.84033C20.6104 1.46631 18.3032 0 15.4629 0C13.3096 0 11.3716 0.871582 10.582 1.85596ZM1.65088 3.33252C1.88672 2.69678 3.37354 1.54834 5.70117 1.54834C8.03906 1.54834 9.55664 2.70703 9.76172 3.33252V16.3037C8.7876 15.5757 7.30078 15.1655 5.70117 15.1655C4.11182 15.1655 2.625 15.5757 1.65088 16.3447V3.33252ZM19.5234 3.33252V16.3447C18.5391 15.5757 17.0625 15.1655 15.4629 15.1655C13.8633 15.1655 12.3867 15.5757 11.4126 16.3037V3.33252C11.6177 2.70703 13.1353 1.54834 15.4629 1.54834C17.8008 1.54834 19.2876 2.69678 19.5234 3.33252Z" fill="var(--fill-0, #5794F7)"/>
</svg>
