<svg preserveAspectRatio="none" width="100%" height="100%" overflow="visible" style="display: block;" viewBox="0 0 11 18" fill="none" xmlns="http://www.w3.org/2000/svg">
<path id="Symbol" d="M8.42871 17.5342C8.60303 17.7085 8.82861 17.811 9.09521 17.811C9.62842 17.811 10.0283 17.4111 10.0283 16.8779C10.0283 16.6216 9.92578 16.3857 9.76172 16.2114L2.29688 8.91064L9.76172 1.60986C9.92578 1.43555 10.0283 1.18945 10.0283 0.943359C10.0283 0.410156 9.62842 0 9.09521 0C8.82861 0 8.60303 0.102539 8.42871 0.276855L0.307617 8.22363C0.112793 8.3877 0 8.64404 0 8.91064C0 9.16699 0.102539 9.40283 0.297363 9.59766L8.42871 17.5342Z" fill="var(--fill-0, #5794F7)"/>
</svg>
