<svg preserveAspectRatio="none" width="100%" height="100%" overflow="visible" style="display: block;" viewBox="0 0 11 18" fill="none" xmlns="http://www.w3.org/2000/svg">
<path id="Symbol" d="M0.933105 17.8213C1.19971 17.8213 1.42529 17.7188 1.59961 17.5444L9.73096 9.59766C9.92578 9.40283 10.0283 9.16699 10.0283 8.91064C10.0283 8.64404 9.92578 8.39795 9.73096 8.22363L1.60986 0.287109C1.42529 0.102539 1.19971 0 0.933105 0C0.399902 0 0 0.410156 0 0.943359C0 1.18945 0.102539 1.43555 0.266602 1.60986L7.73145 8.91064L0.266602 16.2114C0.102539 16.3857 0 16.6216 0 16.8779C0 17.4111 0.399902 17.8213 0.933105 17.8213Z" fill="var(--fill-0, #707070)"/>
</svg>
