<svg preserveAspectRatio="none" width="100%" height="100%" overflow="visible" style="display: block;" viewBox="0 0 19 26" fill="none" xmlns="http://www.w3.org/2000/svg">
<path id="Vector" d="M7.33563 4.36883L7.36598 4.41083L7.30528 4.32683C5.37609 4.28017 4.15517 5.30683 3.64252 7.40683L3.72347 7.51883L3.76394 7.58883C3.55483 8.18617 3.41318 8.7835 3.33898 9.38083L3.30863 9.33883L3.25803 9.26884C5.08604 9.55817 6.5498 9.70283 7.6493 9.70283L7.57846 9.60483L7.68976 9.75883C8.70832 9.6375 10.0911 9.5255 11.8382 9.42283L11.99 9.63283L11.8483 9.43683C11.7809 7.85017 11.2716 6.5575 10.3205 5.55883L10.3609 5.61483L10.3104 5.55883C9.52115 4.7375 8.52283 4.32683 7.3154 4.32683L7.33563 4.36883ZM7.3761 21.8968L7.28504 21.7848L7.45705 22.0088C4.51605 21.8875 2.61047 21.1688 1.74032 19.8528L1.83138 19.9788L1.75044 19.8668C1.19731 18.6442 0.87016 16.5068 0.768979 13.4548L0.647559 13.2868L0.758858 13.4408C0.765604 13.2355 0.741995 12.4935 0.688032 11.2148L0.566619 11.0468L0.698152 11.2288C0.482299 8.8955 0.374373 7.39283 0.374373 6.72083L0.516026 6.91683L0.465432 6.86083C0.404724 5.0315 0.617209 3.59883 1.10288 2.56283L1.21418 2.71683L1.12311 2.59083C2.16865 1.4055 3.69312 0.812834 5.6965 0.812834L5.66614 0.770833L7.19398 0.714835L7.17374 0.686834C8.53632 0.649501 9.73026 0.770834 10.7556 1.05083L10.8264 1.14883L10.7151 0.994833C12.1519 1.4895 13.2041 2.30617 13.8719 3.44483L13.8618 3.43083C14.3542 4.53217 14.624 6.06283 14.6713 8.02283L14.7016 8.05083L14.6106 7.92483C14.6308 9.01683 14.6544 10.5755 14.6814 12.6008L14.651 12.5588L14.5903 12.4888C12.7218 12.6008 10.85 12.6568 8.97477 12.6568L8.82299 12.4468L3.27827 12.6148L3.24791 12.5588C3.38282 16.7308 4.82297 18.7095 7.56835 18.4948C10.0372 18.2148 11.683 17.2208 12.506 15.5128L12.6679 15.7368L12.5667 15.5968C13.1063 16.0262 13.9158 16.7915 14.995 17.8928L15.0254 17.9348C14.0945 20.1655 12.2328 21.4068 9.4402 21.6588L9.47055 21.7148L9.59197 21.8828C9.03885 21.8268 8.30022 21.8315 7.3761 21.8968ZM9.65268 25.1028L9.76398 25.2568L9.73363 25.2148C10.4419 25.1308 11.2075 25.1215 12.0304 25.1868L12.1417 25.3408L12.0608 25.2428C15.4672 25.4855 17.4807 24.3095 18.1013 21.7148L17.9596 21.5188L17.9293 21.4768C16.9647 20.4968 16.1114 19.6522 15.3694 18.9428L15.3289 18.9008H15.3391C15.42 18.4808 15.5246 18.1635 15.6527 17.9488L15.5617 17.8228L15.7033 18.0188C15.2244 17.6082 14.5229 16.9595 13.5987 16.0728L13.4976 15.9188L13.5684 16.0308C14.1822 15.9188 15.1839 16.0075 16.5735 16.2968L16.6443 16.3948L16.5937 16.3248C16.4723 15.0555 16.388 14.1035 16.3408 13.4688L16.5128 13.7068L16.361 10.9768L16.1789 10.7388C16.1856 8.6855 15.9698 6.96817 15.5313 5.58683L15.3998 5.39083C15.3323 5.23217 15.1063 4.86817 14.7219 4.29883L14.6915 4.25683L14.6814 4.24283C14.5465 3.90683 14.4014 3.47283 14.2463 2.94083L14.2159 2.91283L14.3374 3.06683C13.0557 1.1535 10.705 0.196834 7.28504 0.196834L7.21422 0.098834L5.45366 0.000834439C3.24791 -0.0271656 1.65937 0.6495 0.688032 2.03083L0.819572 2.22683L0.667799 2.01683C0.330529 3.22083 0.175385 4.7795 0.202367 6.69283L0 6.42683C0.107927 7.4255 0.202361 8.97483 0.283306 11.0748L0.212479 10.9768C0.340642 12.5822 0.445201 14.3415 0.526146 16.2548L0.394606 16.0728L0.404726 16.1008C0.681288 18.3222 1.11637 19.9322 1.70996 20.9308L1.56831 20.7488L1.6189 20.8188C1.6796 20.9028 1.77405 20.9962 1.90221 21.0988L1.91232 21.1128L2.20575 21.9948L2.29682 22.1208C2.74201 23.7355 5.18722 24.7202 9.63245 25.0748L9.65268 25.1028ZM7.51776 17.8368L7.52788 17.8508L7.54811 17.8788C6.7589 17.9628 6.05738 17.7902 5.44355 17.3608L5.37272 17.2768L5.49413 17.4308C5.43343 17.0202 5.33899 16.4975 5.21083 15.8628L5.32213 16.0168L5.27154 15.9468C6.41151 15.8628 7.52113 15.8208 8.60039 15.8208L8.46886 15.6248L8.48909 15.6668C9.61558 15.6575 10.7454 15.7088 11.8787 15.8208L11.8483 15.7788L11.909 15.8628C11.0051 17.0668 9.538 17.7202 7.50764 17.8228L7.51776 17.8368ZM9.3289 7.75683L9.24795 7.64483L9.28843 7.71483C9.65942 7.6495 10.2935 7.79883 11.1906 8.16283L11.3019 8.31683L11.3829 8.68083L11.393 8.96083L11.4537 9.04483C10.5296 9.1475 9.75723 9.18483 9.13665 9.15683L9.02535 8.98883L9.08607 9.08683C7.5751 9.08683 6.80612 9.08683 6.77914 9.08683L6.83985 9.17084C7.25132 8.1815 8.02367 7.63083 9.15689 7.51883L9.3289 7.75683Z" fill="var(--fill-0, #181A1F)"/>
</svg>
