<svg preserveAspectRatio="none" width="100%" height="100%" overflow="visible" style="display: block;" viewBox="0 0 15 15" fill="none" xmlns="http://www.w3.org/2000/svg">
<path id="path" fill-rule="evenodd" clip-rule="evenodd" d="M2.13568 2.13568C3.50313 0.768227 5.3578 0 7.29167 0C9.22554 0 11.0802 0.768227 12.4477 2.13568C13.8151 3.50313 14.5833 5.3578 14.5833 7.29167C14.5833 8.24922 14.3947 9.1974 14.0283 10.0821C13.6618 10.9667 13.1247 11.7706 12.4477 12.4477C11.7706 13.1247 10.9667 13.6618 10.0821 14.0283C9.1974 14.3947 8.24922 14.5833 7.29167 14.5833C6.33411 14.5833 5.38593 14.3947 4.50127 14.0283C3.6166 13.6618 2.81277 13.1247 2.13568 12.4477C1.45859 11.7706 0.921486 10.9667 0.555045 10.0821C0.188604 9.1974 0 8.24922 0 7.29167C4.34617e-08 5.3578 0.768227 3.50313 2.13568 2.13568ZM7.29167 1.45833C5.74457 1.45833 4.26084 2.07291 3.16688 3.16688C2.07291 4.26084 1.45833 5.74457 1.45833 7.29167C1.45833 8.05771 1.60922 8.81625 1.90237 9.52399C2.19552 10.2317 2.6252 10.8748 3.16688 11.4165C3.70855 11.9581 4.35161 12.3878 5.05935 12.681C5.76708 12.9741 6.52562 13.125 7.29167 13.125C8.05771 13.125 8.81625 12.9741 9.52399 12.681C10.2317 12.3878 10.8748 11.9581 11.4165 11.4165C11.9581 10.8748 12.3878 10.2317 12.681 9.52399C12.9741 8.81625 13.125 8.05771 13.125 7.29167C13.125 5.74457 12.5104 4.26084 11.4165 3.16688C10.3225 2.07291 8.83876 1.45833 7.29167 1.45833ZM6.5625 5.10417C6.5625 4.70146 6.88896 4.375 7.29167 4.375H7.29896C7.70167 4.375 8.02812 4.70146 8.02812 5.10417C8.02812 5.50687 7.70167 5.83333 7.29896 5.83333H7.29167C6.88896 5.83333 6.5625 5.50687 6.5625 5.10417ZM5.83333 7.29167C5.83333 6.88896 6.15979 6.5625 6.5625 6.5625H7.29167C7.69437 6.5625 8.02083 6.88896 8.02083 7.29167V9.47917C8.42354 9.47917 8.75 9.80562 8.75 10.2083C8.75 10.611 8.42354 10.9375 8.02083 10.9375H7.29167C6.88896 10.9375 6.5625 10.611 6.5625 10.2083V8.02083C6.15979 8.02083 5.83333 7.69437 5.83333 7.29167Z" fill="var(--fill-0, #85888E)"/>
</svg>
