<svg preserveAspectRatio="none" width="100%" height="100%" overflow="visible" style="display: block;" viewBox="0 0 17 12" fill="none" xmlns="http://www.w3.org/2000/svg">
<path id="Wifi" d="M5.93848 9.19238C7.33438 8.01172 9.3795 8.01173 10.7754 9.19238C10.8456 9.25584 10.8857 9.34583 10.8877 9.44043C10.8896 9.53509 10.8527 9.62703 10.7852 9.69335L8.59962 11.8984C8.53565 11.9632 8.44842 11.9999 8.35743 12C8.26628 12 8.17834 11.9633 8.11426 11.8984L5.92872 9.69335C5.86118 9.62698 5.8232 9.53509 5.8252 9.44043C5.82723 9.3458 5.86824 9.25581 5.93848 9.19238ZM3.02247 6.25C6.02989 3.45275 10.687 3.45265 13.6943 6.25C13.7622 6.31554 13.8007 6.40568 13.8018 6.5C13.8027 6.5944 13.7658 6.68596 13.6992 6.75293L12.4356 8.02929C12.3053 8.15943 12.0954 8.16199 11.9619 8.03515C10.9744 7.14095 9.68961 6.64553 8.35743 6.6455C7.02604 6.64605 5.74182 7.14154 4.75489 8.03515C4.62131 8.16207 4.41049 8.15966 4.28028 8.02929L3.01758 6.75293C2.9509 6.68605 2.91318 6.59443 2.91407 6.5C2.91504 6.40568 2.95461 6.31552 3.02247 6.25ZM0.105475 3.31543C4.71821 -1.10512 11.9957 -1.10517 16.6084 3.31543C16.675 3.38108 16.7124 3.4709 16.7129 3.56445C16.7134 3.65807 16.6763 3.74802 16.6104 3.81445L15.3457 5.09082C15.2154 5.22183 15.0034 5.22372 14.8711 5.09472C13.1138 3.42418 10.7821 2.4924 8.35743 2.49218C5.93232 2.49218 3.59946 3.42385 1.8418 5.09472C1.70954 5.22392 1.49745 5.22203 1.36719 5.09082L0.102546 3.81445C0.0366352 3.74799 -0.000565218 3.65804 6.49393e-06 3.56445C0.000622636 3.47079 0.0386567 3.38105 0.105475 3.31543Z" fill="var(--fill-0, #181A1F)"/>
</svg>
