<svg preserveAspectRatio="none" width="100%" height="100%" overflow="visible" style="display: block;" viewBox="0 0 21 30" fill="none" xmlns="http://www.w3.org/2000/svg">
<path id="Vector" d="M12.6578 9.744L12.6072 9.674L12.6375 9.716C12.6712 8.72667 12.0338 7.896 10.7252 7.224L10.5734 7.014L10.6544 7.126C10.3238 6.958 9.97983 6.874 9.62232 6.874L9.57174 6.804L9.51103 6.706C8.6004 6.734 7.7842 7.014 7.06244 7.546L7.17374 7.686L7.14339 7.658C6.19228 8.29267 5.75721 9.17933 5.83815 10.318L5.93933 10.458C6.10797 13.006 6.14169 15.33 6.04051 17.43L6.02028 17.388L5.95957 17.318C5.85839 19.5953 5.56496 21.9053 5.07929 24.248L5.24118 24.472L5.16024 24.36C3.70323 24.7987 2.57675 25.214 1.78079 25.606L1.87185 25.732L1.72008 25.508C2.7926 22.1293 3.32886 18.5733 3.32886 14.84L3.33898 14.854H3.32886C3.35584 9.80466 2.4958 5.20333 0.748742 1.05L0.880278 1.218L0.758858 1.05C1.58854 1.526 2.81284 2.10467 4.43173 2.786L4.40138 2.744L4.38114 2.716C4.64421 3.46267 4.90391 4.55 5.16024 5.978L5.12988 5.936L5.15012 5.95C6.00004 3.94333 7.73698 2.97267 10.3609 3.038H10.3508L10.5026 3.248C11.5077 3.276 12.28 3.346 12.8196 3.458L12.6375 3.22L12.7185 3.332C14.7488 3.71467 15.7876 4.84867 15.8348 6.734L15.7438 6.608L15.7843 6.664C15.8652 7.588 15.8416 8.53067 15.7134 9.492L15.5819 9.31L15.7033 9.478C15.4065 11.8393 15.3222 14.4247 15.4504 17.234L15.3087 17.024L15.4605 17.234C15.5144 19.838 15.8753 22.33 16.5431 24.71L16.6241 24.822L16.6139 24.794C15.447 24.3927 14.2834 24.122 13.1232 23.982L13.0827 23.912L13.1333 23.996C12.796 21.7467 12.6004 19.376 12.5465 16.884L12.6173 16.982L12.5869 16.94C12.4858 14.308 12.5127 11.9093 12.6679 9.744H12.6578ZM12.6173 24.29L12.7893 24.528L12.6072 24.276C13.1805 24.3133 13.9023 24.4393 14.7724 24.654L14.8635 24.78L15.1569 26.152L15.2885 26.32C15.302 26.628 15.3863 27.034 15.5414 27.538L15.6122 27.622L15.6628 27.706C17.1198 27.9767 18.759 28.6627 20.5802 29.764L20.6915 29.918L20.7118 29.946C19.0794 26.978 18.0305 23.716 17.565 20.16L17.6662 20.3L17.5043 20.062C17.3762 18.2233 17.3526 15.5773 17.4335 12.124L17.4436 12.152L17.2817 11.928C17.3155 11.6947 17.3458 11.2047 17.3728 10.458L17.4537 10.57L17.4942 10.612C17.4537 9.92133 17.4065 9.34267 17.3526 8.876L17.4335 8.988L17.4537 9.03C17.3188 7.378 16.8804 6.32333 16.1384 5.866L16.1991 5.95L16.1687 5.908C16.0271 5.068 15.6999 4.36333 15.1873 3.794L15.3289 3.99L15.167 3.78C14.0675 2.89333 12.4891 2.48733 10.4318 2.562L10.3609 2.464L10.4824 2.632C9.14677 2.55733 8.19905 2.60867 7.63918 2.786L7.60882 2.758L7.75047 2.94C6.69819 3.15467 5.85164 3.69133 5.21083 4.55L5.33224 4.718L5.19059 4.536C5.12988 4.05067 4.97136 3.32733 4.71504 2.366L4.67457 2.31L4.79599 2.492C2.83307 1.75467 1.23441 0.924 0 0L0.0101203 0.0140003L0.151773 0.209999C2.12818 4.65267 3.11638 9.55734 3.11638 14.924L3.04555 14.826L3.19732 15.036C3.15685 19.068 2.4958 22.876 1.21417 26.46L1.29512 26.586L1.26476 26.53C1.75718 26.2967 2.44184 26.0027 3.31874 25.648L3.16697 25.438L3.26815 25.578C2.95786 26.782 2.62059 27.846 2.25634 28.77L2.10457 28.56L2.20575 28.7C3.17709 28.2987 4.85669 27.832 7.24457 27.3L7.1535 27.174L7.22433 27.272C7.81118 22.3627 8.06414 17.6493 7.98319 13.132L8.17543 13.398C8.08774 12.53 8.44188 11.76 9.23784 11.088L9.20748 11.046L9.25807 11.102C9.95959 10.514 10.6814 10.164 11.4233 10.052L11.4739 10.122C11.7303 10.0193 12.0001 10.0567 12.2834 10.234L12.3036 10.262L12.3542 10.332C12.1451 12.5627 12.054 14.8727 12.081 17.262L12.1923 17.416L12.2126 17.43C12.1721 19.6887 12.3205 21.994 12.6578 24.346L12.6173 24.29Z" fill="var(--fill-0, #181A1F)"/>
</svg>
