<svg preserveAspectRatio="none" width="100%" height="100%" overflow="visible" style="display: block;" viewBox="0 0 13 14" fill="none" xmlns="http://www.w3.org/2000/svg">
<path id="Vector 6113" d="M5.10657 0H12.1042L11.9399 1.33333C11.7726 2.16667 11.7708 2.5 11.2708 3C10.7708 3.5 10.4375 3.5 9.9375 3.5H6.6041C6.32633 3.5 5.83928 3.4 5.43928 3.66667C5.03928 3.93333 4.82817 4.33333 4.77261 4.5L3.93928 8.66667C3.88372 8.88889 3.80594 9.43333 3.93928 9.83333C4.07261 10.2333 4.6615 10.3333 4.77261 10.3333H8.27261C8.49483 10.3333 9.17083 10.4 9.4375 10.6667C9.70417 10.9333 9.9375 11.3333 9.77083 11.8333L9.27261 14H2.60417C1.60417 14 0.837225 13.3334 0.437294 12.6667C-0.162564 11.6667 -0.00651745 10.3333 0.104594 9.66667L1.43991 3.33333C1.43991 3.11111 1.63991 2.23333 2.43991 1.16667C3.23991 0.1 4.55102 0 5.10657 0Z" fill="var(--fill-0, #181A1F)"/>
</svg>
