<svg preserveAspectRatio="none" width="100%" height="100%" overflow="visible" style="display: block;" viewBox="0 0 19 24" fill="none" xmlns="http://www.w3.org/2000/svg">
<path id="Symbol" d="M9.10547 15.1143C9.54639 15.1143 9.91553 14.7451 9.91553 14.3145V3.78369L9.854 2.24561L10.541 2.97363L12.0996 4.63477C12.2432 4.79883 12.4585 4.88086 12.6533 4.88086C13.0737 4.88086 13.4019 4.57324 13.4019 4.15283C13.4019 3.9375 13.3096 3.77344 13.1558 3.61963L9.68994 0.276855C9.48486 0.0717773 9.31055 0 9.10547 0C8.89014 0 8.71582 0.0717773 8.51074 0.276855L5.04492 3.61963C4.89111 3.77344 4.79883 3.9375 4.79883 4.15283C4.79883 4.57324 5.10645 4.88086 5.53711 4.88086C5.73193 4.88086 5.95752 4.79883 6.10107 4.63477L7.65967 2.97363L8.34668 2.24561L8.28516 3.78369V14.3145C8.28516 14.7451 8.66455 15.1143 9.10547 15.1143ZM3.21973 23.1431H14.981C17.124 23.1431 18.2007 22.0767 18.2007 19.9644V9.73096C18.2007 7.61865 17.124 6.55225 14.981 6.55225H12.1201V8.20312H14.9502C15.9653 8.20312 16.5498 8.75684 16.5498 9.82324V19.8721C16.5498 20.9385 15.9653 21.4922 14.9502 21.4922H3.24023C2.21484 21.4922 1.65088 20.9385 1.65088 19.8721V9.82324C1.65088 8.75684 2.21484 8.20312 3.24023 8.20312H6.08057V6.55225H3.21973C1.07666 6.55225 0 7.61865 0 9.73096V19.9644C0 22.0767 1.07666 23.1431 3.21973 23.1431Z" fill="var(--fill-0, #2E7CF6)"/>
</svg>
