<svg preserveAspectRatio="none" width="100%" height="100%" overflow="visible" style="display: block;" viewBox="0 0 22 45" fill="none" xmlns="http://www.w3.org/2000/svg">
<path id="Vector" d="M11.6561 21.182C9.22771 21.0233 7.64255 22.5073 6.90055 25.634L6.96126 25.718L6.95114 25.704C6.71505 26.7307 6.55991 27.7433 6.48571 28.742L6.47559 28.728L6.51606 28.784C6.34743 30.6413 6.59701 32.1907 7.2648 33.432L7.34575 33.558C8.14845 34.5287 9.38623 35.0327 11.0591 35.07L11.0692 35.084L11.14 35.182C12.334 35.1727 13.4065 34.6313 14.3576 33.558L14.4284 33.656L14.4183 33.642C15.3154 32.5033 15.764 31.0987 15.764 29.428L15.936 29.666L15.9259 29.652C15.9327 29.344 15.9124 29.0127 15.8652 28.658L15.8045 28.574L15.8146 28.602C15.565 23.674 14.1586 21.1727 11.5954 21.098L11.6561 21.182ZM11.565 38.654L11.5346 38.612L11.6055 38.71C9.00849 38.878 7.10629 38.0193 5.89886 36.134L6.00004 36.274L5.93933 36.19C5.75046 37.0953 5.50088 38.192 5.19059 39.48L5.26142 39.578L5.18047 39.452C3.80441 40.0773 2.69142 40.656 1.8415 41.188C3.34572 35.6627 4.09783 29.862 4.09783 23.786L4.11807 23.814L4.16866 23.898C4.19564 16.1793 3.0523 8.66133 0.738622 1.344L0.667795 1.232L0.677913 1.246C2.2361 2.48733 3.46377 3.318 4.3609 3.738L4.50256 3.934L4.45197 3.864C5.8685 10.052 6.62736 15.862 6.72854 21.294L6.6476 21.182C7.63917 18.718 9.39298 17.5047 11.909 17.542L12.0001 17.668L11.8888 17.514C14.0541 17.5233 15.6392 18.4007 16.6443 20.146L16.7657 20.314L16.6544 20.174C17.8888 22.302 18.5566 25.032 18.6578 28.364L18.7792 28.532L18.6983 28.42C18.6915 29.4373 18.6612 30.6927 18.6072 32.186L18.6274 32.214L18.5971 32.186C18.651 33.642 18.3846 34.902 17.7978 35.966L17.6865 35.826L17.8281 36.022C16.533 37.4593 14.4217 38.2993 11.4942 38.542L11.565 38.654ZM17.1603 42.224H17.1502L17.1805 42.266C18.1249 42.1913 19.0996 41.832 20.1047 41.188L20.0743 41.16L20.2362 41.37C20.9108 40.0727 21.2615 38.5187 21.2885 36.708L21.3391 36.778L21.3593 36.806C21.3931 36.386 21.3593 35.6253 21.2581 34.524L21.1064 34.314L21.1468 34.37C21.0659 33.6887 20.985 32.9233 20.904 32.074L20.8939 32.046L20.9951 32.186C20.4757 27.7713 19.6898 24.6073 18.6376 22.694L18.4757 22.456L18.506 22.512C18.4925 22.456 18.216 22.022 17.6763 21.21L17.737 21.28C17.6089 21.0747 17.366 20.5987 17.0085 19.852L16.877 19.67L16.8871 19.684C15.8686 17.9573 14.2294 17.1127 11.9697 17.15L11.9495 17.122L11.99 17.164C10.533 17.108 9.37949 17.3647 8.52957 17.934L8.64087 18.074L8.69145 18.144C8.34069 13.7573 7.95958 10.0707 7.54811 7.084L7.57846 7.126L7.63917 7.196C7.18048 7.10267 6.44861 6.87867 5.44354 6.524L5.31201 6.328L5.46378 6.538C5.29514 5.73533 5.05568 4.65733 4.74539 3.304L4.78587 3.36L4.6948 3.234C3.08265 2.534 1.51772 1.456 0 0L0.141653 0.182L0.0910612 0.126C2.63408 7.76067 3.90559 15.6847 3.90559 23.898L3.77405 23.716L3.81453 23.758C3.79429 30.2447 2.95111 36.3813 1.285 42.168L1.34571 42.266L1.41654 42.35C1.78079 41.902 2.41148 41.412 3.30862 40.88L3.43004 41.034L3.31874 40.88C3.27152 41.7387 3.04218 42.8773 2.63071 44.296V44.31L2.59024 44.24C3.9663 43.4467 5.59194 42.8027 7.46716 42.308L7.44693 42.28L7.67964 39.508L7.84154 39.732C9.38623 41.3 12.4959 42.14 17.1704 42.252L17.1603 42.224ZM13.3053 24.416L13.3964 24.556V24.542C13.9832 24.402 14.4554 24.5093 14.8129 24.864L14.9748 25.088C15.1569 25.5173 15.3222 26.67 15.4706 28.546L15.4504 28.518L15.3593 28.392C15.5347 30.1933 15.1974 31.71 14.3475 32.942L14.3677 32.956L14.3272 32.914C13.5583 34.2393 12.5161 34.846 11.2007 34.734L11.1906 34.72L11.0793 34.566C10.533 34.8087 9.75723 34.6967 8.75216 34.23L8.69145 34.146H8.70157C8.53294 33.67 8.44862 33.1847 8.44862 32.69L8.40815 32.634L8.58016 32.858C8.56667 29.974 9.08606 27.7853 10.1383 26.292L10.0169 26.124L9.95622 26.082L10.0372 26.194C11.0692 24.99 12.1755 24.4253 13.3559 24.5L13.3053 24.416Z" fill="var(--fill-0, #181A1F)"/>
</svg>
