<svg preserveAspectRatio="none" width="100%" height="100%" overflow="visible" style="display: block;" viewBox="0 0 46 12" fill="none" xmlns="http://www.w3.org/2000/svg">
<g id="Vector">
<path d="M10.6595 7.42857L12.2309 0H18.5166C18.9452 0.047619 19.9452 0.142857 20.5166 0.714286C21.088 1.28571 21.2309 2.33333 21.2309 2.71429L19.9452 9.42857C19.8499 9.71429 19.6595 10.4286 19.088 11C18.5706 11.5175 17.9452 11.8571 16.9452 12H9.58425L9.94518 10.4286C9.94518 10.3333 10.0898 10 10.5184 9.57143C11.0359 9.05398 11.6631 8.85714 11.947 8.85714H16.088C16.2309 8.80952 16.6288 8.74498 16.9452 8.42857C17.1259 8.24787 17.1833 8 17.2309 7.85714L17.9452 4C17.9452 3.71429 17.9166 3.51429 17.8023 3.28571C17.688 3.05714 17.4214 3 17.2309 3H14.6595L14.088 6C14.088 6.14286 14.0023 6.65714 13.6595 7C13.3166 7.34286 12.8023 7.42857 12.6595 7.42857H10.6595Z" fill="var(--fill-0, white)"/>
<path d="M37.0898 4.57143L37.9452 0H35.9452C35.8023 0 35.4595 0.0571428 35.2309 0.285714C35.0023 0.514286 34.8499 0.857143 34.8023 1L32.5166 12H34.9452C35.088 11.9524 35.4309 11.8 35.6595 11.5714C35.888 11.3429 35.9452 11.0952 35.9452 11L36.5184 8.42857L38.0898 6.85714C38.7565 8.23809 40.1452 10.9429 40.3737 11.2857C40.6023 11.6286 41.0404 11.9048 41.2309 12H44.088L40.3737 5.14286L45.5184 0H41.736L37.0898 4.57143Z" fill="var(--fill-0, white)"/>
<path d="M31.6771 6.42857L32.0469 4.57143H24.1057C23.7472 4.57143 23.4755 4.57143 23.0469 4.85714C22.7811 5.03434 22.6613 5.28571 22.5184 5.71429L22.2327 7.42857H30.0418C30.3683 7.42857 30.7422 7.38517 31.1057 7.14286C31.4692 6.90054 31.6771 6.57143 31.6771 6.42857Z" fill="var(--fill-0, white)"/>
<path d="M32.6613 1.85714L33.031 0H25.0898C24.7314 0 24.4596 0 24.031 0.285714C23.7652 0.462907 23.6454 0.714286 23.5025 1.14286L23.2168 2.85714H31.0259C31.3524 2.85714 31.7264 2.81374 32.0898 2.57143C32.4533 2.32911 32.6613 2 32.6613 1.85714Z" fill="var(--fill-0, white)"/>
<path d="M30.8041 11L31.2327 9H23.2915C22.933 9 22.6025 9.14286 22.1739 9.42857C21.9081 9.60576 21.6613 9.85714 21.5184 10.2857L21.2327 12H29.1687C29.4952 12 29.8692 11.9566 30.2327 11.7143C30.5962 11.472 30.8041 11.1429 30.8041 11Z" fill="var(--fill-0, white)"/>
<path d="M4.37706 0H10.375L10.2342 1.14286C10.0908 1.85714 10.0893 2.14286 9.66072 2.57143C9.23215 3 8.94643 3 8.51786 3H5.66066C5.42257 3 5.00509 2.91429 4.66224 3.14286C4.31938 3.37143 4.13843 3.71429 4.09081 3.85714L3.37652 7.42857C3.3289 7.61905 3.26224 8.08571 3.37652 8.42857C3.49081 8.77143 3.99557 8.85714 4.09081 8.85714H7.09081C7.28129 8.85714 7.86072 8.91429 8.08929 9.14286C8.31786 9.37143 8.51786 9.71429 8.375 10.1429L7.94795 12H2.23214C1.375 12 0.717622 11.4286 0.374824 10.8571C-0.139341 10 -0.00558638 8.85714 0.0896517 8.28571L1.2342 2.85714C1.2342 2.66667 1.40563 1.91429 2.09135 1C2.77706 0.0857142 3.90087 0 4.37706 0Z" fill="var(--fill-0, white)"/>
</g>
</svg>
