<svg preserveAspectRatio="none" width="100%" height="100%" overflow="visible" style="display: block;" viewBox="0 0 15 18" fill="none" xmlns="http://www.w3.org/2000/svg">
<path id="Vector" d="M6.01187 0H14.25L14.0566 1.71429C13.8597 2.78571 13.8576 3.21429 13.2689 3.85714C12.6803 4.5 12.2879 4.5 11.6992 4.5H7.77488C7.44786 4.5 6.87447 4.37143 6.40355 4.71429C5.93264 5.05714 5.68411 5.57143 5.6187 5.78571L4.63763 11.1429C4.57223 11.4286 4.48066 12.1286 4.63763 12.6429C4.7946 13.1571 5.48789 13.2857 5.6187 13.2857H9.73918C10.0008 13.2857 10.7966 13.3714 11.1106 13.7143C11.4245 14.0571 11.6992 14.5714 11.503 15.2143L10.9165 18H3.06583C1.88855 18 0.985649 17.1429 0.514818 16.2857C-0.191383 15 -0.00767285 13.2857 0.123136 12.4286L1.69517 4.28571C1.69517 4 1.93063 2.87143 2.87245 1.5C3.81428 0.128571 5.35782 0 6.01187 0Z" fill="var(--fill-0, #44E858)"/>
</svg>
