<svg preserveAspectRatio="none" width="100%" height="100%" overflow="visible" style="display: block;" viewBox="0 0 12 9" fill="none" xmlns="http://www.w3.org/2000/svg">
<path id="path" fill-rule="evenodd" clip-rule="evenodd" d="M1.26994 4.08333C2.56105 6.09062 4.084 7 5.83333 7C7.58267 7 9.10561 6.09062 10.3967 4.08333C9.10561 2.07604 7.58267 1.16667 5.83333 1.16667C4.084 1.16667 2.56105 2.07604 1.26994 4.08333ZM0.0831291 3.78321C1.55294 1.33352 3.46759 0 5.83333 0C8.19908 0 10.1137 1.33352 11.5835 3.78321C11.6944 3.96794 11.6944 4.19872 11.5835 4.38346C10.1137 6.83315 8.19908 8.16667 5.83333 8.16667C3.46759 8.16667 1.55294 6.83315 0.0831291 4.38346C-0.0277097 4.19872 -0.0277097 3.96794 0.0831291 3.78321ZM4.5959 2.8459C4.92408 2.51771 5.3692 2.33333 5.83333 2.33333C6.29746 2.33333 6.74258 2.51771 7.07077 2.8459C7.39896 3.17408 7.58333 3.6192 7.58333 4.08333C7.58333 4.54746 7.39896 4.99258 7.07077 5.32077C6.74258 5.64896 6.29746 5.83333 5.83333 5.83333C5.3692 5.83333 4.92408 5.64896 4.5959 5.32077C4.26771 4.99258 4.08333 4.54746 4.08333 4.08333C4.08333 3.6192 4.26771 3.17408 4.5959 2.8459ZM5.83333 3.5C5.67862 3.5 5.53025 3.56146 5.42085 3.67085C5.31146 3.78025 5.25 3.92862 5.25 4.08333C5.25 4.23804 5.31146 4.38642 5.42085 4.49581C5.53025 4.60521 5.67862 4.66667 5.83333 4.66667C5.98804 4.66667 6.13642 4.60521 6.24581 4.49581C6.35521 4.38642 6.41667 4.23804 6.41667 4.08333C6.41667 3.92862 6.35521 3.78025 6.24581 3.67085C6.13642 3.56146 5.98804 3.5 5.83333 3.5Z" fill="var(--fill-0, #181A1F)"/>
</svg>
