<svg preserveAspectRatio="none" width="100%" height="100%" overflow="visible" style="display: block;" viewBox="0 0 10.2083 14.5833" fill="none" xmlns="http://www.w3.org/2000/svg">
<path id="path" fill-rule="evenodd" clip-rule="evenodd" d="M2.52617 1.06784C3.2099 0.384113 4.13723 0 5.10417 0C6.0711 0 6.99843 0.384113 7.68216 1.06784C8.36589 1.75157 8.75 2.6789 8.75 3.64583C8.75 4.61277 8.36589 5.5401 7.68216 6.22383C6.99843 6.90755 6.0711 7.29167 5.10417 7.29167C4.13723 7.29167 3.2099 6.90755 2.52617 6.22383C1.84245 5.5401 1.45833 4.61277 1.45833 3.64583C1.45833 2.6789 1.84245 1.75157 2.52617 1.06784ZM5.10417 1.45833C4.52401 1.45833 3.96761 1.6888 3.55737 2.09904C3.14713 2.50927 2.91667 3.06567 2.91667 3.64583C2.91667 4.22599 3.14713 4.78239 3.55737 5.19263C3.96761 5.60286 4.52401 5.83333 5.10417 5.83333C5.68433 5.83333 6.24073 5.60286 6.65096 5.19263C7.0612 4.78239 7.29167 4.22599 7.29167 3.64583C7.29167 3.06567 7.0612 2.50927 6.65096 2.09904C6.24073 1.6888 5.68433 1.45833 5.10417 1.45833ZM3.64583 10.2083C3.06567 10.2083 2.50927 10.4388 2.09904 10.849C1.6888 11.2593 1.45833 11.8157 1.45833 12.3958V13.8542C1.45833 14.2569 1.13187 14.5833 0.729167 14.5833C0.326459 14.5833 0 14.2569 0 13.8542V12.3958C0 11.4289 0.384113 10.5016 1.06784 9.81784C1.75157 9.13411 2.6789 8.75 3.64583 8.75H6.5625C7.52944 8.75 8.45677 9.13411 9.14049 9.81784C9.82422 10.5016 10.2083 11.4289 10.2083 12.3958V13.8542C10.2083 14.2569 9.88187 14.5833 9.47917 14.5833C9.07646 14.5833 8.75 14.2569 8.75 13.8542V12.3958C8.75 11.8157 8.51953 11.2593 8.1093 10.849C7.69906 10.4388 7.14266 10.2083 6.5625 10.2083H3.64583Z" fill="var(--fill-0, #2B2E33)"/>
</svg>
