<svg preserveAspectRatio="none" width="100%" height="100%" overflow="visible" style="display: block;" viewBox="0 0 15 18" fill="none" xmlns="http://www.w3.org/2000/svg">
<path id="Vector" d="M6.01187 0H14.25L14.0566 1.67033C13.8597 2.71429 13.8576 3.13187 13.2689 3.75824C12.6803 4.38462 12.2879 4.38462 11.6992 4.38462H7.77488C7.44786 4.38462 6.87447 4.25934 6.40355 4.59341C5.93264 4.92747 5.68411 5.42857 5.6187 5.63736L4.63763 10.8571C4.57223 11.1355 4.48066 11.8176 4.63763 12.3187C4.7946 12.8198 5.48789 12.9451 5.6187 12.9451H9.73918C10.0008 12.9451 10.7966 13.0286 11.1106 13.3626C11.4245 13.6967 11.6992 14.1978 11.503 14.8242L10.9165 17.5385H3.06583C1.88855 17.5385 0.985649 16.7034 0.514818 15.8681C-0.191383 14.6154 -0.00767285 12.9451 0.123136 12.1099L1.69517 4.17582C1.69517 3.89744 1.93063 2.7978 2.87245 1.46154C3.81428 0.125275 5.35782 0 6.01187 0Z" fill="var(--fill-0, #181A1F)"/>
</svg>
