<svg preserveAspectRatio="none" width="100%" height="100%" overflow="visible" style="display: block;" viewBox="0 0 16 12" fill="none" xmlns="http://www.w3.org/2000/svg">
<g id="contents">
<path id="middle" fill-rule="evenodd" clip-rule="evenodd" d="M8.9407e-06 5.00679e-06H16V12H8.9407e-06V5.00679e-06Z" fill="var(--fill-0, #73BE4A)"/>
<path id="top" fill-rule="evenodd" clip-rule="evenodd" d="M8.9407e-06 5.00679e-06V8.00001H16V5.00679e-06H8.9407e-06Z" fill="var(--fill-0, #AF0100)"/>
<rect id="Rectangle 11" x="8.9407e-06" y="5.00679e-06" width="3" height="12" fill="var(--fill-0, #F7FCFF)"/>
<g id="mark">
<path id="Combined shape 1984" d="M0.5 11C0.776159 11 1 11.2239 1 11.5C0.999994 11.7762 0.776155 12 0.5 12C0.223902 12 5.54081e-06 11.7762 0 11.5C0 11.2239 0.223899 11 0.5 11ZM2.5 11C2.7761 11 3 11.2239 3 11.5C2.99999 11.7762 2.7761 12 2.5 12C2.22385 12 2.00001 11.7762 2 11.5C2 11.2239 2.22385 11 2.5 11ZM1.5 10C1.77615 10 2 10.2239 2 10.5C2 10.7761 1.77615 11 1.5 11C1.22391 11 1 10.7761 1 10.5C1 10.2239 1.22391 10 1.5 10ZM0.5 9C0.776151 9.00001 0.999986 9.22384 1 9.5C1 9.77612 0.776159 9.99999 0.5 10C0.223899 10 0 9.77612 0 9.5C1.35289e-05 9.22383 0.223907 9 0.5 9ZM2.5 9C2.77609 9 2.99999 9.22383 3 9.5C3 9.77612 2.7761 10 2.5 10C2.22385 9.99998 2 9.77611 2 9.5C2.00001 9.22384 2.22386 9.00002 2.5 9ZM1.5 8C1.77615 8.00001 2 8.22389 2 8.5C1.99999 8.77612 1.77615 8.99999 1.5 9C1.22391 9 1.00001 8.77613 1 8.5C1 8.22388 1.22391 8 1.5 8ZM1.53125 5.47559L2.96191 4.05469L3 4V5L2.05469 6.01855L3 7V8L3.02148 8.04688L1.54492 6.56836L0.21875 8H0V7L0.990234 6.01367L0 5.02246V4H0.109375L1.53125 5.47559ZM1.5 3C1.77615 3.00001 2 3.22389 2 3.5C2 3.77612 1.77615 3.99999 1.5 4C1.22391 4 1 3.77613 1 3.5C1 3.22388 1.22391 3 1.5 3ZM0.5 2C0.776152 2.00001 0.999989 2.22383 1 2.5C1 2.77613 0.776159 2.99999 0.5 3C0.223899 3 0 2.77613 0 2.5C1.06943e-05 2.22383 0.223906 2 0.5 2ZM2.5 2C2.77609 2 2.99999 2.22383 3 2.5C3 2.77613 2.7761 3 2.5 3C2.22385 2.99998 2 2.77613 2 2.5C2.00001 2.22384 2.22386 2.00002 2.5 2ZM1.5 1C1.77615 1.00001 2 1.22387 2 1.5C2 1.77613 1.77615 1.99999 1.5 2C1.22391 2 1 1.77613 1 1.5C1 1.22387 1.22391 1 1.5 1ZM0.5 0C0.776156 5.9914e-06 0.999995 0.223873 1 0.5C1 0.776131 0.776159 0.999994 0.5 1C0.223899 1 0 0.776135 0 0.5C5.41254e-06 0.22387 0.223902 0 0.5 0ZM2.5 0C2.7761 0 2.99999 0.22387 3 0.5C3 0.776135 2.7761 1 2.5 1C2.22385 0.999984 2 0.776125 2 0.5C2.00001 0.223879 2.22385 1.56546e-05 2.5 0Z" fill="var(--fill-0, #D0181A)"/>
<path id="Combined shape 1989" opacity="0.4" d="M1 12H0V11H1V12ZM3 12H2V11H3V12ZM1 10H0V9H1V10ZM1 8H0V7H1V8ZM1 5H0V4H1V5ZM1 3H0V2H1V3ZM1 1H0V0H1V1ZM3 1H2V0H3V1Z" fill="var(--fill-0, #8F181A)"/>
</g>
</g>
</svg>
