<svg preserveAspectRatio="none" width="100%" height="100%" overflow="visible" style="display: block;" viewBox="0 0 21 41" fill="none" xmlns="http://www.w3.org/2000/svg">
<path id="Vector" d="M11.3222 8.33V8.316L11.4031 8.428C9.71002 8.32533 8.4149 8.84333 7.51776 9.982L7.41658 9.842L7.47728 9.926C6.49245 10.9433 6.10122 12.6233 6.30359 14.966L6.39465 15.092L6.47559 15.204C6.60375 17.444 7.0793 19.1473 7.90224 20.314L8.03378 20.496L7.96296 20.412C8.70495 21.6907 9.79433 22.2927 11.2311 22.218L11.2716 22.274L11.14 22.092C11.5448 22.12 11.8112 22.134 11.9394 22.134L12.0304 22.26L11.9394 22.12C14.334 21.56 15.5684 19.1333 15.6426 14.84H15.6527L15.6426 14.826C15.6763 12.6047 15.4638 11.1207 15.0052 10.374L14.9445 10.29L15.076 10.472C14.3812 9.296 13.1738 8.638 11.4537 8.498L11.3222 8.33ZM14.6409 24.696L14.7826 24.878L14.6814 24.752C13.7505 25.2373 12.7589 25.4427 11.7067 25.368L11.7572 25.438H11.7471C9.15689 25.6153 7.42332 24.4953 6.54642 22.078L6.7083 22.288L6.55654 22.092C6.43512 27.076 5.92584 31.556 5.0287 35.532L5.00847 35.504C3.91571 36.1293 2.81621 36.778 1.70996 37.45L1.62902 37.324H1.6189C3.33897 31.7427 4.10795 25.6993 3.92582 19.194L3.9663 19.25L3.93594 19.208C3.72009 12.7587 2.63408 6.71067 0.677912 1.064L0.789211 1.204L0.758858 1.162C2.12143 2.338 3.37945 3.14067 4.53292 3.57L4.43173 3.43L4.98823 5.53L5.03882 5.6C5.01859 5.77733 5.09953 6.384 5.28165 7.42L5.46378 7.672L5.30189 7.448C5.98317 5.516 7.53125 4.46133 9.9461 4.284L9.96634 4.312L10.0776 4.466C10.6577 4.41 11.2412 4.382 11.8281 4.382L11.7269 4.242L12.2632 4.298L12.3036 4.354C12.4318 4.41933 12.5599 4.47067 12.6881 4.508L12.5262 4.284L12.9411 4.438L12.85 4.312C14.3407 4.704 15.3289 5.00267 15.8146 5.208H15.8045L15.673 5.012C16.7725 5.572 17.619 6.3 18.2126 7.196L18.1317 7.084L18.1519 7.112C18.7185 8.21333 18.9883 9.422 18.9613 10.738L18.9411 10.71L19.0221 10.822C18.9479 13.3887 18.6409 15.9133 18.1013 18.396L18.1822 18.508L18.2328 18.564C17.4369 21.7 16.2429 23.7487 14.651 24.71L14.6409 24.696ZM19.1334 25.788L19.1232 25.718L18.9715 25.522C19.7674 23.7393 20.2666 20.93 20.4689 17.094L20.3981 16.982L20.4487 17.066C20.5431 15.414 20.5904 14 20.5904 12.824V12.838L20.6713 12.936C20.6578 11.4987 20.3947 10.122 19.8821 8.806L19.9731 8.932L19.8922 8.82C19.5819 8.36267 19.2615 7.95667 18.931 7.602L19.0119 7.714L18.7387 7.182L18.6679 6.916L18.6173 6.678L18.5769 6.636C17.3964 4.72267 15.3424 3.766 12.4149 3.766L12.4858 3.864L11.8078 3.766L11.7471 3.682C8.66448 3.75667 6.57003 4.54067 5.46378 6.034H5.4739L5.46378 6.02C5.34236 5.53467 5.23106 5.06333 5.12988 4.606L5.17035 4.662L4.7454 2.954L4.86681 3.108C3.19395 2.548 1.61552 1.57267 0.131533 0.181999L0 0L0.151773 0.224C2.24285 5.95467 3.39294 12.1987 3.60204 18.956L3.70323 19.096L3.63241 18.998C3.89548 25.858 3.06242 32.312 1.13323 38.36L1.14334 38.374L3.14673 37.142L3.05567 37.016C2.93426 37.772 2.6442 38.878 2.18552 40.334L2.07422 40.194L2.21587 40.376C3.96293 39.284 5.61892 38.5793 7.18386 38.262L7.12315 38.164L7.21421 38.29C7.97644 33.81 8.41152 29.8293 8.51945 26.348L8.48909 26.306L8.52957 26.362C9.5144 27.79 11.2277 28.6113 13.6696 28.826L13.619 28.77L13.5481 28.658C16.2193 28.9193 18.044 27.9113 19.0221 25.634L19.0524 25.676L19.1334 25.788ZM13.2244 11.424C13.6898 11.396 14.2935 11.5407 15.0355 11.858L15.1266 11.984L14.9647 11.76C15.2345 12.8053 15.3559 13.8787 15.3289 14.98L15.2581 14.882C15.2176 15.6847 15.1333 16.3893 15.0052 16.996L15.0456 17.052L15.1569 17.192C14.624 19.8333 13.5111 21.294 11.818 21.574L11.9191 21.728L12.0102 21.686H12.0001C11.8922 21.602 11.8011 21.5787 11.7269 21.616L11.8483 21.784L11.221 21.672L11.1603 21.574C10.3643 21.574 9.63244 21.3453 8.96465 20.888L8.98488 20.916L8.73193 18.172L8.53969 17.906C8.49922 15.8247 8.91743 14.3033 9.79433 13.342L9.86516 13.454L9.74374 13.286C10.4318 12.278 11.5852 11.648 13.2041 11.396L13.2244 11.424Z" fill="var(--fill-0, #181A1F)"/>
</svg>
