<svg preserveAspectRatio="none" width="100%" height="100%" overflow="visible" style="display: block;" viewBox="0 0 23 23" fill="none" xmlns="http://www.w3.org/2000/svg">
<path id="Symbol" d="M3.21973 17.1445H5.1167V18.9082C5.1167 21.0205 6.19336 22.0869 8.33643 22.0869H19.2876C21.4307 22.0869 22.5073 21.0205 22.5073 18.9082V8.0083C22.5073 5.90625 21.4307 4.83984 19.2876 4.83984H17.3906V3.17871C17.3906 1.06641 16.3037 0 14.1709 0H3.21973C1.06641 0 0 1.06641 0 3.17871V13.9761C0 16.0884 1.06641 17.1445 3.21973 17.1445ZM3.24023 15.4937C2.21484 15.4937 1.65088 14.9502 1.65088 13.8838V3.271C1.65088 2.20459 2.21484 1.65088 3.24023 1.65088H14.1401C15.1553 1.65088 15.7397 2.20459 15.7397 3.271V4.83984H8.33643C6.19336 4.83984 5.1167 5.896 5.1167 8.0083V15.4937H3.24023ZM8.36719 20.436C7.3418 20.436 6.76758 19.8823 6.76758 18.8159V8.10059C6.76758 7.03418 7.3418 6.49072 8.36719 6.49072H19.2671C20.2822 6.49072 20.8564 7.03418 20.8564 8.10059V18.8262C20.8564 19.8823 20.2822 20.436 19.2671 20.436H8.36719Z" fill="var(--fill-0, #2E7CF6)"/>
</svg>
