<svg preserveAspectRatio="none" width="100%" height="100%" overflow="visible" style="display: block;" viewBox="0 0 11 12" fill="none" xmlns="http://www.w3.org/2000/svg">
<path id="Vector 6113" d="M4.37706 0H10.375L10.2342 1.14286C10.0908 1.85714 10.0893 2.14286 9.66072 2.57143C9.23215 3 8.94643 3 8.51786 3H5.66066C5.42257 3 5.0051 2.91429 4.66224 3.14286C4.31938 3.37143 4.13843 3.71429 4.09081 3.85714L3.37652 7.42857C3.3289 7.61905 3.26224 8.08571 3.37652 8.42857C3.49081 8.77143 3.99557 8.85714 4.09081 8.85714H7.09081C7.28129 8.85714 7.86072 8.91429 8.08929 9.14286C8.31786 9.37143 8.51786 9.71429 8.375 10.1429L7.94795 12H2.23214C1.375 12 0.717622 11.4286 0.374824 10.8571C-0.139341 10 -0.00558639 8.85714 0.0896517 8.28572L1.2342 2.85714C1.2342 2.66667 1.40563 1.91429 2.09135 1C2.77706 0.0857143 3.90087 0 4.37706 0Z" fill="var(--fill-0, #181A1F)"/>
</svg>
