<svg preserveAspectRatio="none" width="100%" height="100%" overflow="visible" style="display: block;" viewBox="0 0 17 12" fill="none" xmlns="http://www.w3.org/2000/svg">
<path id="Cellular" d="M2 7.33008C2.55228 7.33008 3 7.77779 3 8.33008V10.3301C2.99993 10.8823 2.55224 11.3301 2 11.3301H1C0.447756 11.3301 6.59659e-05 10.8823 0 10.3301V8.33008C0 7.77779 0.447715 7.33008 1 7.33008H2ZM6.66992 5.33008C7.22221 5.33008 7.66992 5.77779 7.66992 6.33008V10.3301C7.66986 10.8823 7.22217 11.3301 6.66992 11.3301H5.66992C5.11773 11.33 4.66999 10.8823 4.66992 10.3301V6.33008C4.66992 5.77783 5.11769 5.33014 5.66992 5.33008H6.66992ZM11.3301 2.66016C11.8823 2.66019 12.33 3.12571 12.3301 3.7002V10.29C12.3299 10.8644 11.8822 11.33 11.3301 11.3301H10.3301C9.77793 11.3301 9.33031 10.8644 9.33008 10.29V3.7002C9.33018 3.12569 9.77786 2.66016 10.3301 2.66016H11.3301ZM16 0C16.5523 0 17 0.47587 17 1.0625V10.2676C17 10.8542 16.5523 11.3301 16 11.3301H15C14.4477 11.3301 14 10.8542 14 10.2676V1.0625C14 0.475886 14.4477 2.51822e-05 15 0H16Z" fill="var(--fill-0, #181A1F)"/>
</svg>
