<svg preserveAspectRatio="none" width="100%" height="100%" overflow="visible" style="display: block;" viewBox="0 0 54 14" fill="none" xmlns="http://www.w3.org/2000/svg">
<g id="Vector">
<path d="M12.436 8.66667L14.2694 0H21.6027C22.1027 0.0555556 23.2694 0.166667 23.936 0.833333C24.6027 1.5 24.7694 2.72222 24.7694 3.16667L23.2694 11C23.1583 11.3333 22.936 12.1667 22.2694 12.8333C21.6657 13.437 20.936 13.8333 19.7694 14H11.1816L11.6027 12.1667C11.6027 12.0556 11.7715 11.6667 12.2715 11.1667C12.8752 10.563 13.6069 10.3333 13.9381 10.3333H18.7694C18.936 10.2778 19.4002 10.2025 19.7694 9.83333C19.9802 9.62251 20.0471 9.33333 20.1027 9.16667L20.936 4.66667C20.936 4.33333 20.9027 4.1 20.7694 3.83333C20.636 3.56667 20.3249 3.5 20.1027 3.5H17.1027L16.436 7C16.436 7.16667 16.336 7.76667 15.936 8.16667C15.536 8.56667 14.936 8.66667 14.7694 8.66667H12.436Z" fill="var(--fill-0, #181A1F)"/>
<path d="M43.2715 5.33333L44.2694 0H41.936C41.7694 0 41.3694 0.0666666 41.1027 0.333333C40.836 0.6 40.6583 1 40.6027 1.16667L37.936 14H40.7694C40.936 13.9444 41.336 13.7667 41.6027 13.5C41.8694 13.2333 41.936 12.9444 41.936 12.8333L42.6048 9.83333L44.4381 8C45.2159 9.61111 46.836 12.7667 47.1027 13.1667C47.3694 13.5667 47.8805 13.8889 48.1027 14H51.436L47.1027 6L53.1048 0H48.692L43.2715 5.33333Z" fill="var(--fill-0, #181A1F)"/>
<path d="M36.9567 7.5L37.3881 5.33333H28.1233C27.7051 5.33333 27.3881 5.33333 26.8881 5.66667C26.578 5.87339 26.4381 6.16667 26.2715 6.66667L25.9381 8.66667H35.0487C35.4296 8.66667 35.8659 8.61603 36.29 8.33333C36.714 8.05063 36.9567 7.66667 36.9567 7.5Z" fill="var(--fill-0, #181A1F)"/>
<path d="M38.1048 2.16667L38.5362 0H29.2715C28.8532 0 28.5362 0 28.0362 0.333333C27.7261 0.540058 27.5863 0.833333 27.4196 1.33333L27.0863 3.33333H36.1969C36.5778 3.33333 37.0141 3.2827 37.4381 3C37.8622 2.7173 38.1048 2.33333 38.1048 2.16667Z" fill="var(--fill-0, #181A1F)"/>
<path d="M35.9381 12.8333L36.4381 10.5H27.1734C26.7552 10.5 26.3695 10.6667 25.8695 11C25.5595 11.2067 25.2715 11.5 25.1048 12L24.7715 14H34.0302C34.4111 14 34.8474 13.9494 35.2715 13.6667C35.6955 13.384 35.9381 13 35.9381 12.8333Z" fill="var(--fill-0, #181A1F)"/>
<path d="M5.10657 0H12.1042L11.9399 1.33333C11.7726 2.16667 11.7708 2.5 11.2708 3C10.7708 3.5 10.4375 3.5 9.9375 3.5H6.6041C6.32633 3.5 5.83928 3.4 5.43928 3.66667C5.03928 3.93333 4.82817 4.33333 4.77261 4.5L3.93928 8.66667C3.88372 8.88889 3.80594 9.43333 3.93928 9.83333C4.07261 10.2333 4.6615 10.3333 4.77261 10.3333H8.27261C8.49483 10.3333 9.17084 10.4 9.4375 10.6667C9.70417 10.9333 9.9375 11.3333 9.77084 11.8333L9.27261 14H2.60417C1.60417 14 0.837225 13.3334 0.437294 12.6667C-0.162564 11.6667 -0.00651745 10.3333 0.104594 9.66667L1.43991 3.33333C1.43991 3.11111 1.63991 2.23333 2.43991 1.16667C3.23991 0.0999999 4.55102 0 5.10657 0Z" fill="var(--fill-0, #181A1F)"/>
</g>
</svg>
