<svg preserveAspectRatio="none" width="100%" height="100%" overflow="visible" style="display: block;" viewBox="0 0 14 14" fill="none" xmlns="http://www.w3.org/2000/svg">
<path id="path" fill-rule="evenodd" clip-rule="evenodd" d="M10.7705 3.64768C9.58253 1.92308 7.40897 1.0786 5.29074 1.62176C4.39345 1.85261 3.57593 2.32334 2.92582 2.98346C2.27565 3.64365 1.81746 4.46837 1.60038 5.36917C1.3833 6.26997 1.41553 7.21287 1.69361 8.09675C1.97168 8.98063 2.48512 9.77214 3.17884 10.3864C3.87257 11.0006 4.72042 11.4145 5.63146 11.5835C6.54251 11.7525 7.48237 11.6703 8.35026 11.3458C9.21816 11.0212 9.98133 10.4666 10.5579 9.74126C11.1346 9.01594 11.5029 8.14735 11.6233 7.22863C11.6757 6.82934 12.0418 6.5481 12.4411 6.60046C12.8404 6.65282 13.1217 7.01896 13.0693 7.41825C12.9144 8.59946 12.4409 9.71623 11.6995 10.6488C10.9581 11.5813 9.97692 12.2945 8.86105 12.7117C7.74519 13.129 6.53679 13.2347 5.36545 13.0174C4.19411 12.8 3.10402 12.268 2.21208 11.4782C1.32015 10.6885 0.660021 9.67082 0.302496 8.53441C-0.0550301 7.39799 -0.0964658 6.18569 0.182633 5.02752C0.461733 3.86934 1.05084 2.80899 1.88677 1.96018C2.7227 1.11137 3.77392 0.506118 4.92769 0.209341L4.92818 0.209214C7.46789 -0.442161 10.0855 0.464718 11.666 2.4113V0.731009C11.666 0.328301 11.9924 0.00184195 12.3951 0.00184195C12.7978 0.00184195 13.1243 0.328301 13.1243 0.731009V4.37684C13.1243 4.77955 12.7978 5.10601 12.3951 5.10601H12.0001C11.988 5.10631 11.9759 5.10631 11.9638 5.10601H8.74929C8.34658 5.10601 8.02012 4.77955 8.02012 4.37684C8.02012 3.97413 8.34658 3.64768 8.74929 3.64768H10.7705Z" fill="var(--fill-0, black)"/>
</svg>
