<svg preserveAspectRatio="none" width="100%" height="100%" overflow="visible" style="display: block;" viewBox="0 0 16 12" fill="none" xmlns="http://www.w3.org/2000/svg">
<g id="contents">
<path id="background" fill-rule="evenodd" clip-rule="evenodd" d="M0 0V12H16V0H0Z" fill="var(--fill-0, #F7FCFF)"/>
<mask id="mask0_3332_3037" style="mask-type:luminance" maskUnits="userSpaceOnUse" x="0" y="0" width="16" height="12">
<path id="background_2" fill-rule="evenodd" clip-rule="evenodd" d="M0 0V12H16V0H0Z" fill="var(--fill-0, white)"/>
</mask>
<g mask="url(#mask0_3332_3037)">
<g id="mark 1">
<path id="cross" fill-rule="evenodd" clip-rule="evenodd" d="M7 0H9V5H16V7H9V12H7V7H0V5H7V0Z" fill="var(--fill-0, #E31D1C)"/>
</g>
<g id="mark 2">
<path id="Combined Shape" fill-rule="evenodd" clip-rule="evenodd" d="M4.99934 8.61098L6.1 8.5V9.5C6.1 9.5 4.99934 9.43108 4.99934 9.45098C4.99934 9.47088 5.1 10.5 5.1 10.5H4.1L4.18011 9.5H3.1V8.5L4.18011 8.61098L4.1 7.5H5.1L4.99934 8.61098Z" fill="var(--fill-0, #E31D1C)"/>
<path id="Combined Shape_2" fill-rule="evenodd" clip-rule="evenodd" d="M4.99934 2.61098L6.1 2.5V3.5C6.1 3.5 4.99934 3.43108 4.99934 3.45098C4.99934 3.47088 5.1 4.5 5.1 4.5H4.1L4.18011 3.5H3.1V2.5L4.18011 2.61098L4.1 1.5H5.1L4.99934 2.61098Z" fill="var(--fill-0, #E31D1C)"/>
<path id="Combined Shape_3" fill-rule="evenodd" clip-rule="evenodd" d="M11.9993 2.61098L13.1 2.5V3.5C13.1 3.5 11.9993 3.43108 11.9993 3.45098C11.9993 3.47088 12.1 4.5 12.1 4.5H11.1L11.1801 3.5H10.1V2.5L11.1801 2.61098L11.1 1.5H12.1L11.9993 2.61098Z" fill="var(--fill-0, #E31D1C)"/>
<path id="Combined Shape_4" fill-rule="evenodd" clip-rule="evenodd" d="M11.9993 8.61098L13.1 8.5V9.5C13.1 9.5 11.9993 9.43108 11.9993 9.45098C11.9993 9.47088 12.1 10.5 12.1 10.5H11.1L11.1801 9.5H10.1V8.5L11.1801 8.61098L11.1 7.5H12.1L11.9993 8.61098Z" fill="var(--fill-0, #E31D1C)"/>
</g>
</g>
</g>
</svg>
